<svg viewBox="0 0 1200 440" xmlns="http://www.w3.org/2000/svg" role="img" aria-label="Hiring in the age of AI">
<defs>
<linearGradient id="bg3" x1="0" y1="0" x2="1" y2="1"><stop offset="0" stop-color="#201e1a"/><stop offset="1" stop-color="#12233f"/></linearGradient>
<pattern id="d3" width="30" height="30" patternUnits="userSpaceOnUse"><circle cx="2" cy="2" r="1.6" fill="#ffffff" opacity="0.08"/></pattern>
<radialGradient id="glow" cx="0.5" cy="0.5" r="0.5"><stop offset="0" stop-color="#3f66ae" stop-opacity="0.9"/><stop offset="1" stop-color="#3f66ae" stop-opacity="0"/></radialGradient>
</defs>
<rect width="1200" height="440" fill="url(#bg3)"/>
<rect width="1200" height="440" fill="url(#d3)"/>
<g stroke="#7f96c9" stroke-width="1.5" opacity="0.5">
<line x1="300" y1="150" x2="500" y2="250"/><line x1="500" y1="250" x2="420" y2="360"/><line x1="500" y1="250" x2="720" y2="180"/><line x1="720" y1="180" x2="900" y2="290"/><line x1="720" y1="180" x2="860" y2="110"/><line x1="500" y1="250" x2="640" y2="330"/>
</g>
<circle cx="500" cy="250" r="70" fill="url(#glow)"/>
<g>
<circle cx="300" cy="150" r="12" fill="#7f96c9"/><circle cx="420" cy="360" r="10" fill="#7f96c9"/><circle cx="720" cy="180" r="16" fill="#f4f1ec"/><circle cx="900" cy="290" r="11" fill="#7f96c9"/><circle cx="860" cy="110" r="9" fill="#7f96c9"/><circle cx="640" cy="330" r="9" fill="#7f96c9"/>
<circle cx="500" cy="250" r="26" fill="#3f66ae"/><circle cx="500" cy="250" r="26" fill="none" stroke="#f4f1ec" stroke-width="2" opacity="0.8"/>
</g>
<ellipse cx="500" cy="250" rx="120" ry="52" fill="none" stroke="#7f96c9" stroke-width="1.5" stroke-dasharray="5 9" opacity="0.55" transform="rotate(-18 500 250)"/>
</svg>
